<svg width="689" height="184" viewBox="0 0 689 184" fill="none" xmlns="http://www.w3.org/2000/svg">
<rect width="689" height="184" fill="none"/>
<path d="M80 166V68L155.5 115.322V16" stroke="url(#paint0_linear_1044_87)" stroke-width="20" stroke-linejoin="bevel"/>
<path d="M117.5 31.5L87 13.8909L35.5 47.5V134.5L82.5 168" stroke="url(#paint1_linear_1044_87)" stroke-width="20" stroke-linecap="round" stroke-linejoin="bevel"/>
<path d="M119.5 152.5L150 170.109L201.5 136.5V49.5L154.5 16" stroke="url(#paint2_linear_1044_87)" stroke-width="20" stroke-linecap="round" stroke-linejoin="bevel"/>
<path d="M117.5 31.5L87 13.8909L35.5 47.5V134.5L82.5 168" stroke="#D7F3B6" stroke-width="3" stroke-linecap="round" stroke-linejoin="bevel"/>
<path d="M119.5 152.5L150 170.109L201.5 136.5V49.5L154.5 16" stroke="#D7F3B6" stroke-width="3" stroke-linecap="round" stroke-linejoin="bevel"/>
<circle cx="117" cy="31" r="6" fill="#D7F3B6"/>
<circle cx="120" cy="153" r="6" transform="rotate(-180 120 153)" fill="#D7F3B6"/>
<circle cx="87" cy="16" r="6" fill="#D7F3B6"/>
<circle cx="150" cy="168" r="6" transform="rotate(-180 150 168)" fill="#D7F3B6"/>
<circle cx="36" cy="47" r="6" fill="#D7F3B6"/>
<circle cx="201" cy="136" r="6" transform="rotate(-180 201 136)" fill="#D7F3B6"/>
<circle cx="36" cy="132" r="6" fill="#D7F3B6"/>
<circle cx="201" cy="52" r="6" transform="rotate(-180 201 52)" fill="#D7F3B6"/>
<circle cx="82" cy="168" r="6" fill="#D7F3B6"/>
<circle cx="154" cy="16" r="6" transform="rotate(-180 154 16)" fill="#D7F3B6"/>
<path d="M272.49 133.5V48.1H292.864L327.756 111.418H328.244V48.1H344.714V133.5H324.34L289.448 70.304H288.96V133.5H272.49ZM384.808 134.964C378.627 134.964 373.137 133.663 368.338 131.06C363.621 128.457 359.92 124.797 357.236 120.08C354.552 115.363 353.21 109.954 353.21 103.854C353.21 97.51 354.511 91.9387 357.114 87.14C359.798 82.26 363.499 78.4373 368.216 75.672C373.015 72.9067 378.545 71.524 384.808 71.524C390.908 71.524 396.235 72.8253 400.79 75.428C405.345 78.0307 408.923 81.6093 411.526 86.164C414.129 90.6373 415.43 95.7207 415.43 101.414C415.43 102.227 415.389 103.163 415.308 104.22C415.308 105.196 415.267 106.213 415.186 107.27H364.922V97.144H398.716C398.472 93.3213 397.049 90.2713 394.446 87.994C391.925 85.7167 388.753 84.578 384.93 84.578C382.083 84.578 379.481 85.2287 377.122 86.53C374.763 87.75 372.893 89.6613 371.51 92.264C370.127 94.7853 369.436 97.998 369.436 101.902V105.44C369.436 108.775 370.087 111.662 371.388 114.102C372.689 116.461 374.479 118.291 376.756 119.592C379.115 120.893 381.758 121.544 384.686 121.544C387.695 121.544 390.217 120.893 392.25 119.592C394.283 118.209 395.829 116.461 396.886 114.346H413.6C412.461 118.169 410.55 121.666 407.866 124.838C405.182 127.929 401.888 130.409 397.984 132.28C394.08 134.069 389.688 134.964 384.808 134.964ZM415.225 133.5L437.429 103.244L415.225 72.988H433.037L447.799 93.85H448.287L463.049 72.988H480.739L458.535 103.244L480.739 133.5H463.049L448.287 112.638H447.799L433.037 133.5H415.225ZM513.786 133.5C509.475 133.5 505.693 132.849 502.44 131.548C499.268 130.165 496.787 127.929 494.998 124.838C493.209 121.666 492.314 117.355 492.314 111.906V86.164H481.944V72.988H492.314L494.144 56.518H508.784V72.988H524.888V86.164H508.784V112.15C508.784 115.078 509.394 117.111 510.614 118.25C511.834 119.307 513.908 119.836 516.836 119.836H524.522V133.5H513.786Z" fill="white"/>
<path d="M550.569 133.5L577.653 48.1H604.615L631.577 133.5H614.131L591.439 57.738H590.951L567.771 133.5H550.569ZM564.355 108.978L568.625 96.168H612.179L616.449 108.978H564.355ZM636.703 133.5V48.1H653.173V133.5H636.703Z" fill="#83CA2A"/>
<defs>
<linearGradient id="paint0_linear_1044_87" x1="118" y1="31" x2="155" y2="158" gradientUnits="userSpaceOnUse">
<stop offset="0.283354" stop-color="#74A13C"/>
<stop offset="1" stop-color="#A8DF51"/>
</linearGradient>
<linearGradient id="paint1_linear_1044_87" x1="76.5" y1="13.8909" x2="76.5" y2="168" gradientUnits="userSpaceOnUse">
<stop stop-color="#A8DF51"/>
<stop offset="1" stop-color="#78A527"/>
</linearGradient>
<linearGradient id="paint2_linear_1044_87" x1="160.5" y1="170.109" x2="160.5" y2="16" gradientUnits="userSpaceOnUse">
<stop stop-color="#74A13C"/>
<stop offset="1" stop-color="#A8DF51"/>
</linearGradient>
</defs>
</svg>
